<svg version="1.0" xmlns="http://www.w3.org/2000/svg"
 viewBox="340 115 710 710"
 preserveAspectRatio="xMidYMid meet">

<g transform="translate(0.000000,1024.000000) scale(0.100000,-0.100000)"
fill="currentColor" stroke="none">
<path d="M7934 8856 c-17 -7 -40 -26 -52 -41 l-22 -28 0 -3326 c0 -3307 0
-3326 20 -3359 38 -63 120 -71 178 -18 l37 34 3 931 2 931 399 0 399 0 145
-137 145 -138 1 -182 c1 -162 -1 -183 -15 -183 -31 0 -139 -65 -190 -115 -161
-158 -178 -421 -38 -599 179 -227 510 -244 708 -36 34 35 70 87 89 127 30 65
32 74 32 188 0 113 -2 124 -31 185 -53 112 -149 202 -254 241 l-60 22 0 196
c0 169 -3 201 -19 236 -11 24 -73 93 -157 175 -76 74 -159 156 -185 182 -26
26 -59 52 -74 58 -16 6 -191 10 -461 10 l-434 0 0 245 0 245 733 0 732 0 340
-341 c187 -188 354 -347 371 -355 25 -10 33 -21 39 -51 11 -61 63 -149 121
-203 172 -163 435 -158 605 10 167 166 169 431 4 596 -198 199 -527 163 -685
-74 -15 -22 -21 -16 -340 301 -179 178 -335 329 -347 335 -16 9 -228 12 -797
12 l-776 0 0 254 0 254 1250 1 1250 1 30 -63 c87 -179 287 -275 488 -233 229
48 373 247 341 473 -52 373 -534 501 -776 205 -23 -28 -50 -74 -60 -102 l-18
-50 -1252 0 -1253 0 0 250 0 250 691 0 691 0 106 103 c59 57 152 148 207 203
55 55 135 134 178 174 l77 74 46 -22 c111 -54 278 -52 391 4 247 124 313 454
133 657 -95 107 -201 151 -350 145 -81 -3 -105 -8 -163 -36 -86 -40 -173 -125
-212 -207 -38 -80 -46 -196 -20 -292 l18 -66 -255 -253 -255 -254 -642 0 -641
0 0 235 0 235 363 0 c212 0 377 4 398 10 52 14 370 323 393 381 14 34 17 76
16 237 l-2 195 46 18 c57 21 136 79 170 124 15 19 39 61 54 93 24 51 27 69 27
167 0 103 -2 114 -32 178 -102 215 -357 304 -578 203 -79 -36 -169 -125 -207
-205 -102 -213 10 -487 231 -567 l51 -18 0 -169 0 -169 -122 -118 -123 -119
-342 -1 -343 0 0 825 c0 891 1 874 -52 909 -35 23 -79 28 -114 12z m1306 -596
c116 -59 132 -236 28 -313 -84 -62 -180 -60 -254 5 -47 42 -64 77 -64 138 0
66 19 111 64 146 69 56 147 64 226 24z m1128 -995 c103 -44 149 -159 103 -260
-56 -125 -223 -153 -322 -54 -68 68 -73 177 -12 258 49 64 151 89 231 56z
m717 -1516 c55 -15 120 -82 135 -138 39 -145 -96 -279 -241 -241 -93 25 -149
97 -149 192 0 88 48 152 136 183 48 17 68 18 119 4z m-257 -1520 c152 -74 126
-315 -40 -360 -88 -23 -193 24 -232 105 -20 42 -21 125 -2 169 40 95 171 136
274 86z m-1414 -1120 c140 -73 176 -235 78 -349 -103 -121 -293 -104 -372 33
-74 130 -11 279 140 328 31 10 124 3 154 -12z"/>
<path d="M6673 8705 c-281 -51 -503 -221 -635 -487 -27 -55 -29 -57 -55 -47
-46 17 -205 23 -293 10 -407 -60 -741 -363 -839 -761 l-27 -111 -76 -33 c-279
-121 -478 -309 -594 -562 -96 -207 -119 -492 -55 -682 l18 -52 -48 -36 c-90
-66 -207 -210 -266 -329 -125 -247 -132 -574 -20 -827 67 -150 209 -317 354
-415 68 -46 83 -61 79 -78 -23 -96 -28 -159 -24 -273 21 -530 413 -970 987
-1109 58 -14 148 -28 200 -32 l94 -6 22 -65 c33 -99 50 -134 108 -223 109
-165 237 -277 420 -367 280 -137 632 -153 915 -39 310 124 537 389 604 704 18
87 19 172 18 2654 0 2811 4 2617 -60 2757 -138 305 -477 473 -827 409z m311
-267 c115 -38 210 -117 261 -219 55 -107 55 -103 55 -1161 l0 -977 -65 -31
c-196 -94 -395 -92 -590 4 -210 104 -332 285 -342 511 -8 169 46 314 162 430
77 77 135 111 264 155 119 40 146 64 146 130 0 50 -31 91 -80 108 -33 11 -49
10 -119 -8 -330 -83 -569 -348 -617 -683 l-13 -85 -43 19 c-58 25 -143 46
-219 54 -71 8 -203 -9 -252 -32 -84 -40 -81 -173 4 -209 29 -12 48 -13 117 -3
208 30 398 -67 511 -261 177 -305 557 -489 903 -436 54 9 126 24 161 35 47 15
64 16 68 7 2 -6 3 -639 2 -1406 l-3 -1395 -22 -79 c-32 -112 -87 -207 -171
-297 -87 -92 -167 -148 -277 -190 -170 -66 -355 -75 -529 -24 -405 117 -628
454 -551 829 19 93 7 139 -45 174 -28 19 -44 23 -83 19 -85 -8 -116 -54 -148
-226 l-12 -63 -68 6 c-288 29 -578 184 -739 397 -128 170 -183 328 -184 529
-1 140 18 222 77 335 42 78 164 202 248 250 75 43 99 75 99 133 0 69 -74 131
-138 116 -109 -27 -307 -179 -399 -309 -20 -28 -22 -29 -49 -15 -16 8 -70 55
-120 105 -77 76 -98 104 -137 185 -61 124 -80 201 -80 320 1 164 50 307 151
440 60 80 170 170 235 194 57 21 87 62 87 118 0 49 -18 86 -50 103 -22 12 -29
26 -43 90 -10 42 -17 119 -17 174 0 366 272 700 637 782 115 25 323 5 413 -41
119 -61 236 43 176 157 -29 58 -204 121 -384 138 l-73 7 6 32 c13 57 73 186
118 249 206 288 574 400 851 260 63 -32 150 -114 184 -173 36 -63 60 -88 98
-100 67 -22 136 22 150 97 5 27 -1 49 -31 111 -30 60 -58 97 -127 166 l-90 89
17 37 c48 108 163 231 264 284 62 32 145 59 216 69 53 8 168 -5 229 -25z"/>
<path d="M4942 6150 c-49 -30 -64 -77 -70 -209 -5 -132 8 -221 49 -335 76
-209 268 -417 476 -517 90 -43 247 -89 304 -89 l36 0 6 -74 c8 -94 46 -213 94
-296 47 -80 178 -213 256 -259 100 -59 217 -93 339 -99 60 -3 108 -9 108 -14
0 -5 -44 -53 -98 -106 -74 -74 -117 -107 -177 -139 -241 -126 -506 -133 -741
-18 -52 25 -108 58 -126 74 -47 40 -71 51 -115 51 -88 0 -140 -76 -108 -158
33 -81 244 -204 434 -253 489 -126 998 106 1219 554 65 133 77 194 45 248 -17
29 -67 59 -97 59 -9 0 -43 -11 -75 -24 -31 -14 -96 -30 -143 -37 -159 -22
-320 32 -434 145 -110 110 -152 232 -139 409 l7 97 -34 34 c-33 33 -33 33
-153 38 -206 9 -355 75 -500 222 -150 152 -219 351 -186 539 9 54 9 73 -3 100
-30 73 -107 98 -174 57z"/>
</g>
</svg>
